<?xml version="1.0" standalone="no"?>
<!DOCTYPE svg PUBLIC "-//W3C//DTD SVG 20010904//EN"
 "http://www.w3.org/TR/2001/REC-SVG-20010904/DTD/svg10.dtd">
<svg version="1.0" xmlns="http://www.w3.org/2000/svg"
 width="1280.000000pt" height="1094.000000pt" viewBox="0 0 1280.000000 1094.000000"
 preserveAspectRatio="xMidYMid meet">
<g transform="translate(0.000000,1094.000000) scale(0.100000,-0.100000)"
fill="#000000" stroke="none">
<path d="M7949 10936 c-2 -2 -69 -12 -149 -21 -333 -37 -592 -112 -885 -255
-507 -247 -928 -663 -1183 -1167 -111 -220 -175 -401 -227 -637 -13 -60 -27
-112 -32 -117 -10 -10 -315 -69 -326 -62 -4 2 -32 43 -63 90 -115 173 -238
313 -397 449 -303 260 -650 424 -1047 495 -168 30 -463 37 -640 14 -988 -125
-1755 -890 -1886 -1879 -20 -159 -18 -422 5 -583 37 -246 92 -425 201 -648
264 -543 745 -950 1326 -1125 54 -16 101 -35 105 -42 10 -15 12 -208 3 -232
-5 -14 -35 -16 -227 -16 -177 0 -224 3 -236 14 -9 8 -126 55 -260 105 l-243
91 -180 0 c-140 0 -179 -3 -175 -12 11 -25 559 -1163 562 -1166 2 -2 48 9 104
24 l101 27 60 98 61 99 207 0 c149 0 211 -3 220 -12 9 -9 12 -326 12 -1365 l0
-1353 345 0 345 0 0 -32 c-1 -50 -75 -576 -82 -584 -4 -3 -381 -77 -838 -165
l-832 -158 -181 93 -182 93 -645 -123 c-355 -68 -655 -126 -667 -129 -19 -4
-20 -9 -12 -37 5 -18 27 -181 49 -362 22 -182 42 -331 43 -332 1 -2 272 49
602 112 330 63 629 119 665 125 l65 11 160 159 160 158 890 192 c490 105 895
196 901 203 6 6 38 173 69 371 32 198 62 370 66 383 l9 22 3314 0 c3013 0
3314 1 3320 16 3 9 6 1020 6 2248 0 1723 -3 2235 -12 2244 -9 9 -86 12 -285
12 -212 0 -273 3 -273 13 1 6 39 46 86 87 100 89 242 245 337 373 479 643 636
1481 423 2258 -278 1015 -1142 1769 -2181 1904 -66 8 -154 20 -195 25 -73 10
-273 14 -281 6z m-2164 -3934 c6 -4 33 -43 60 -87 98 -158 228 -319 387 -478
87 -86 158 -159 158 -162 0 -3 -306 -5 -680 -5 -476 0 -680 3 -680 11 0 6 27
52 61 102 70 106 184 335 224 452 16 44 31 83 35 88 5 6 374 82 415 86 6 0 15
-3 20 -7z m3859 -4346 c128 -39 202 -173 166 -301 -17 -61 -87 -138 -145 -160
-67 -26 -160 -17 -221 21 -174 107 -140 378 56 439 59 18 87 18 144 1z"/>
<path d="M12125 6135 l-669 -405 -518 0 -518 0 2 -997 3 -998 522 -3 522 -2
661 -401 c364 -220 664 -399 666 -396 2 2 3 815 2 1806 l-3 1802 -670 -406z"/>
</g>
</svg>
